{
	"asset":{
		"version":"2.0",
		"generator":"Created using the official Cinema 4D glTF Exporter 1.000x290161"
	},
	"scenes":[{
		"nodes":[0]
	}],
	"nodes":[{
		"name":"uploads_files_2342562_tooth.obj",
		"children":[1,
		2,
		3,
		4,
		5,
		6,
		7,
		8,
		9]
	},
	{
		"name":"Plane.022_Plane.048",
		"translation":[2.220446049250313e-16,
		4.149126052856445,
		-0.6214315295219421],
		"rotation":[0.0,
		0.0,
		0.0,
		-1.0],
		"scale":[1.0,
		1.0,
		1.0],
		"mesh":0
	},
	{
		"name":"Plane.021_Plane.047",
		"translation":[-1.1102230246251566e-16,
		4.150905132293701,
		-0.5978645086288452],
		"rotation":[0.0,
		0.0,
		0.0,
		-1.0],
		"scale":[1.0,
		1.0,
		1.0],
		"mesh":1
	},
	{
		"name":"Plane.020_Plane.046",
		"translation":[0.0,
		2.6693789958953859,
		-0.8709865212440491],
		"rotation":[0.0,
		0.0,
		0.0,
		-1.0],
		"scale":[1.0,
		1.0,
		1.0],
		"mesh":2
	},
	{
		"name":"Plane.018_Plane.045",
		"translation":[0.0,
		2.9662435054779054,
		-0.2745234966278076],
		"rotation":[0.0,
		0.0,
		0.0,
		-1.0],
		"scale":[1.0,
		1.0,
		1.0],
		"mesh":3
	},
	{
		"name":"Plane.017_Plane.044",
		"translation":[-2.220446049250313e-16,
		3.0399484634399416,
		-0.14792950451374055],
		"rotation":[0.0,
		0.0,
		0.0,
		-1.0],
		"scale":[1.0,
		1.0,
		1.0],
		"mesh":4
	},
	{
		"name":"Plane.016_Plane.043",
		"translation":[-2.220446049250313e-16,
		3.0425496101379396,
		-0.22991199791431428],
		"rotation":[0.0,
		0.0,
		0.0,
		-1.0],
		"scale":[1.0,
		1.0,
		1.0],
		"mesh":5
	},
	{
		"name":"Plane.015_Plane.042",
		"translation":[2.220446049250313e-16,
		3.9452319145202638,
		-0.9237045049667358],
		"rotation":[0.0,
		0.0,
		0.0,
		-1.0],
		"scale":[1.0,
		1.0,
		1.0],
		"mesh":6
	},
	{
		"name":"Plane.014_Plane.041",
		"translation":[2.220446049250313e-16,
		3.6898279190063478,
		-0.5899749994277954],
		"rotation":[0.0,
		0.0,
		0.0,
		-1.0],
		"scale":[1.0,
		1.0,
		1.0],
		"mesh":7
	},
	{
		"name":"Plane.013_Plane.040",
		"translation":[0.0,
		1.9392684698104859,
		-0.8376399874687195],
		"rotation":[0.0,
		0.0,
		0.0,
		-1.0],
		"scale":[1.0,
		1.0,
		1.0],
		"mesh":8
	}],
	"meshes":[{
		"primitives":[{
			"attributes":{
				"POSITION":1,
				"NORMAL":2,
				"TEXCOORD_0":3
			},
			"indices":0,
			"material":0
		}]
	},
	{
		"primitives":[{
			"attributes":{
				"POSITION":5,
				"NORMAL":6,
				"TEXCOORD_0":7
			},
			"indices":4,
			"material":0
		}]
	},
	{
		"primitives":[{
			"attributes":{
				"POSITION":9,
				"NORMAL":10,
				"TEXCOORD_0":11
			},
			"indices":8,
			"material":0
		}]
	},
	{
		"primitives":[{
			"attributes":{
				"POSITION":13,
				"NORMAL":14,
				"TEXCOORD_0":15
			},
			"indices":12,
			"material":0
		}]
	},
	{
		"primitives":[{
			"attributes":{
				"POSITION":17,
				"NORMAL":18,
				"TEXCOORD_0":19
			},
			"indices":16,
			"material":0
		}]
	},
	{
		"primitives":[{
			"attributes":{
				"POSITION":21,
				"NORMAL":22,
				"TEXCOORD_0":23
			},
			"indices":20,
			"material":0
		}]
	},
	{
		"primitives":[{
			"attributes":{
				"POSITION":25,
				"NORMAL":26,
				"TEXCOORD_0":27
			},
			"indices":24,
			"material":0
		}]
	},
	{
		"primitives":[{
			"attributes":{
				"POSITION":29,
				"NORMAL":30,
				"TEXCOORD_0":31
			},
			"indices":28,
			"material":0
		}]
	},
	{
		"primitives":[{
			"attributes":{
				"POSITION":33,
				"NORMAL":34,
				"TEXCOORD_0":35
			},
			"indices":32,
			"material":0
		}]
	}],
	"accessors":[{
		"bufferView":0,
		"type":"SCALAR",
		"componentType":5123,
		"count":10080,
		"byteOffset":0,
		"min":[0],
		"max":[2210]
	},
	{
		"bufferView":1,
		"type":"VEC3",
		"componentType":5126,
		"count":2211,
		"byteOffset":0,
		"min":[-1.7603814601898194,
		-2.874901056289673,
		-0.6233584880828857],
		"max":[1.7603814601898194,
		2.874901056289673,
		0.6233584880828857]
	},
	{
		"bufferView":1,
		"type":"VEC3",
		"componentType":5126,
		"count":2211,
		"byteOffset":12,
		"min":[-0.9982500672340393,
		-0.9999063014984131,
		-0.9999063014984131],
		"max":[0.9982500672340393,
		0.9978438019752502,
		0.9999688267707825]
	},
	{
		"bufferView":1,
		"type":"VEC2",
		"componentType":5126,
		"count":2211,
		"byteOffset":24,
		"min":[0.015878422185778619,
		0.012713257223367691],
		"max":[0.3225676119327545,
		0.332261860370636]
	},
	{
		"bufferView":2,
		"type":"SCALAR",
		"componentType":5123,
		"count":11136,
		"byteOffset":0,
		"min":[0],
		"max":[2490]
	},
	{
		"bufferView":3,
		"type":"VEC3",
		"componentType":5126,
		"count":2491,
		"byteOffset":0,
		"min":[-1.6511540412902833,
		-2.8299500942230226,
		-0.5981084704399109],
		"max":[1.6511540412902833,
		2.8299500942230226,
		0.5981084704399109]
	},
	{
		"bufferView":3,
		"type":"VEC3",
		"componentType":5126,
		"count":2491,
		"byteOffset":12,
		"min":[-0.9997813105583191,
		-0.9995625615119934,
		-0.9998437762260437],
		"max":[0.9997813105583191,
		0.9989375472068787,
		0.9999688267707825]
	},
	{
		"bufferView":3,
		"type":"VEC2",
		"componentType":5126,
		"count":2491,
		"byteOffset":24,
		"min":[0.35388389229774477,
		0.025315269827842714],
		"max":[0.6625549793243408,
		0.33314359188079836]
	},
	{
		"bufferView":4,
		"type":"SCALAR",
		"componentType":5123,
		"count":21936,
		"byteOffset":0,
		"min":[0],
		"max":[4657]
	},
	{
		"bufferView":5,
		"type":"VEC3",
		"componentType":5126,
		"count":4658,
		"byteOffset":0,
		"min":[-3.040864944458008,
		-1.6167659759521485,
		-0.8784505128860474],
		"max":[3.040864944458008,
		1.6167659759521485,
		0.8784505128860474]
	},
	{
		"bufferView":5,
		"type":"VEC3",
		"componentType":5126,
		"count":4658,
		"byteOffset":12,
		"min":[-0.9999688267707825,
		-0.9999688267707825,
		-0.9999688267707825],
		"max":[0.9999688267707825,
		0.9999688267707825,
		1.0]
	},
	{
		"bufferView":5,
		"type":"VEC2",
		"componentType":5126,
		"count":4658,
		"byteOffset":24,
		"min":[0.6907421946525574,
		0.37239766120910647],
		"max":[0.9901468753814697,
		0.6689435243606567]
	},
	{
		"bufferView":6,
		"type":"SCALAR",
		"componentType":5123,
		"count":19023,
		"byteOffset":0,
		"min":[0],
		"max":[6562]
	},
	{
		"bufferView":7,
		"type":"VEC3",
		"componentType":5126,
		"count":6563,
		"byteOffset":0,
		"min":[-2.388000011444092,
		-2.4203646183013918,
		-0.23618049919605256],
		"max":[2.388000011444092,
		2.4203646183013918,
		0.23618049919605256]
	},
	{
		"bufferView":7,
		"type":"VEC3",
		"componentType":5126,
		"count":6563,
		"byteOffset":12,
		"min":[-0.9699375629425049,
		-0.9996563196182251,
		-0.963843822479248],
		"max":[0.9925938248634338,
		0.9997813105583191,
		0.9960938096046448]
	},
	{
		"bufferView":7,
		"type":"VEC2",
		"componentType":5126,
		"count":6563,
		"byteOffset":24,
		"min":[0.023555079475045205,
		0.3658105134963989],
		"max":[0.32078635692596438,
		0.6785579919815064]
	},
	{
		"bufferView":8,
		"type":"SCALAR",
		"componentType":5123,
		"count":14106,
		"byteOffset":0,
		"min":[0],
		"max":[4874]
	},
	{
		"bufferView":9,
		"type":"VEC3",
		"componentType":5126,
		"count":4875,
		"byteOffset":0,
		"min":[-2.395869016647339,
		-2.499335527420044,
		-0.1444835066795349],
		"max":[2.395869016647339,
		2.499335527420044,
		0.1444835066795349]
	},
	{
		"bufferView":9,
		"type":"VEC3",
		"componentType":5126,
		"count":4875,
		"byteOffset":12,
		"min":[-0.9684063196182251,
		-0.9994375705718994,
		-0.9957813024520874],
		"max":[0.9601563215255737,
		0.9485625624656677,
		0.9676250219345093]
	},
	{
		"bufferView":9,
		"type":"VEC2",
		"componentType":5126,
		"count":4875,
		"byteOffset":24,
		"min":[0.3646392524242401,
		0.6940993070602417],
		"max":[0.6654775142669678,
		0.9915918111801148]
	},
	{
		"bufferView":10,
		"type":"SCALAR",
		"componentType":5123,
		"count":16752,
		"byteOffset":0,
		"min":[0],
		"max":[5805]
	},
	{
		"bufferView":11,
		"type":"VEC3",
		"componentType":5126,
		"count":5806,
		"byteOffset":0,
		"min":[-2.3835206031799318,
		-2.4974355697631838,
		-0.21768200397491456],
		"max":[2.3835206031799318,
		2.4974355697631838,
		0.21768200397491456]
	},
	{
		"bufferView":11,
		"type":"VEC3",
		"componentType":5126,
		"count":5806,
		"byteOffset":12,
		"min":[-0.9998750686645508,
		-0.9741250276565552,
		-0.9936875700950623],
		"max":[0.8947500586509705,
		0.8666563034057617,
		1.0]
	},
	{
		"bufferView":11,
		"type":"VEC2",
		"componentType":5126,
		"count":5806,
		"byteOffset":24,
		"min":[0.6985726952552795,
		0.03728960454463959],
		"max":[0.984102189540863,
		0.3307698369026184]
	},
	{
		"bufferView":12,
		"type":"SCALAR",
		"componentType":5123,
		"count":5184,
		"byteOffset":0,
		"min":[0],
		"max":[1241]
	},
	{
		"bufferView":13,
		"type":"VEC3",
		"componentType":5126,
		"count":1242,
		"byteOffset":0,
		"min":[-3.143977403640747,
		-0.7688339948654175,
		-0.8993704915046692],
		"max":[3.143977403640747,
		0.7688339948654175,
		0.8993704915046692]
	},
	{
		"bufferView":13,
		"type":"VEC3",
		"componentType":5126,
		"count":1242,
		"byteOffset":12,
		"min":[-0.9999063014984131,
		-0.9999688267707825,
		-0.9998750686645508],
		"max":[0.9999063014984131,
		0.9988125562667847,
		0.9980625510215759]
	},
	{
		"bufferView":13,
		"type":"VEC2",
		"componentType":5126,
		"count":1242,
		"byteOffset":24,
		"min":[0.368917316198349,
		0.3779665231704712],
		"max":[0.663307249546051,
		0.6771934032440186]
	},
	{
		"bufferView":14,
		"type":"SCALAR",
		"componentType":5123,
		"count":10176,
		"byteOffset":0,
		"min":[0],
		"max":[2383]
	},
	{
		"bufferView":15,
		"type":"VEC3",
		"componentType":5126,
		"count":2384,
		"byteOffset":0,
		"min":[-1.428767442703247,
		-2.342128038406372,
		-0.5803030133247376],
		"max":[1.428767442703247,
		2.342128038406372,
		0.5803030133247376]
	},
	{
		"bufferView":15,
		"type":"VEC3",
		"componentType":5126,
		"count":2384,
		"byteOffset":12,
		"min":[-0.9995625615119934,
		-0.9988750219345093,
		-0.9998750686645508],
		"max":[0.9995625615119934,
		0.999125063419342,
		0.999625027179718]
	},
	{
		"bufferView":15,
		"type":"VEC2",
		"componentType":5126,
		"count":2384,
		"byteOffset":24,
		"min":[0.023628853261470796,
		0.6948877573013306],
		"max":[0.3273918628692627,
		0.9955918788909912]
	},
	{
		"bufferView":16,
		"type":"SCALAR",
		"componentType":5123,
		"count":31296,
		"byteOffset":0,
		"min":[0],
		"max":[7508]
	},
	{
		"bufferView":17,
		"type":"VEC3",
		"componentType":5126,
		"count":7509,
		"byteOffset":0,
		"min":[-2.9733965396881105,
		-1.9054404497146607,
		-0.8383960127830505],
		"max":[2.9733965396881105,
		1.9054404497146607,
		0.8383960127830505]
	},
	{
		"bufferView":17,
		"type":"VEC3",
		"componentType":5126,
		"count":7509,
		"byteOffset":12,
		"min":[-0.9999688267707825,
		-1.0,
		-0.9997813105583191],
		"max":[0.9999688267707825,
		1.0,
		1.0]
	},
	{
		"bufferView":17,
		"type":"VEC2",
		"componentType":5126,
		"count":7509,
		"byteOffset":24,
		"min":[0.6974390745162964,
		0.7010179758071899],
		"max":[0.9891244173049927,
		0.9890693426132202]
	}],
	"bufferViews":[{
		"buffer":0,
		"byteOffset":0,
		"byteLength":20160,
		"target":34963
	},
	{
		"buffer":0,
		"byteOffset":20160,
		"byteLength":70752,
		"target":34962,
		"byteStride":32
	},
	{
		"buffer":1,
		"byteOffset":0,
		"byteLength":22272,
		"target":34963
	},
	{
		"buffer":1,
		"byteOffset":22272,
		"byteLength":79712,
		"target":34962,
		"byteStride":32
	},
	{
		"buffer":2,
		"byteOffset":0,
		"byteLength":43872,
		"target":34963
	},
	{
		"buffer":2,
		"byteOffset":43872,
		"byteLength":149056,
		"target":34962,
		"byteStride":32
	},
	{
		"buffer":3,
		"byteOffset":0,
		"byteLength":38046,
		"target":34963
	},
	{
		"buffer":3,
		"byteOffset":38048,
		"byteLength":210016,
		"target":34962,
		"byteStride":32
	},
	{
		"buffer":4,
		"byteOffset":0,
		"byteLength":28212,
		"target":34963
	},
	{
		"buffer":4,
		"byteOffset":28212,
		"byteLength":156000,
		"target":34962,
		"byteStride":32
	},
	{
		"buffer":5,
		"byteOffset":0,
		"byteLength":33504,
		"target":34963
	},
	{
		"buffer":5,
		"byteOffset":33504,
		"byteLength":185792,
		"target":34962,
		"byteStride":32
	},
	{
		"buffer":6,
		"byteOffset":0,
		"byteLength":10368,
		"target":34963
	},
	{
		"buffer":6,
		"byteOffset":10368,
		"byteLength":39744,
		"target":34962,
		"byteStride":32
	},
	{
		"buffer":7,
		"byteOffset":0,
		"byteLength":20352,
		"target":34963
	},
	{
		"buffer":7,
		"byteOffset":20352,
		"byteLength":76288,
		"target":34962,
		"byteStride":32
	},
	{
		"buffer":8,
		"byteOffset":0,
		"byteLength":62592,
		"target":34963
	},
	{
		"buffer":8,
		"byteOffset":62592,
		"byteLength":240288,
		"target":34962,
		"byteStride":32
	}],
	"buffers":[{
		"uri":"data:application/octet-stream;base64,",
		"byteLength":90912
	},
	{
		"uri":"data:application/octet-stream;base64,",
		"byteLength":101984
	},
	{
		"uri":"data:application/octet-stream;base64,",
		"byteLength":192928
	},
	{
		"uri":"data:application/octet-stream;base64,",
		"byteLength":248064
	},
	{
		"uri":"data:application/octet-stream;base64,",
		"byteLength":184212
	},
	{
		"uri":"data:application/octet-stream;base64,",
		"byteLength":219296
	},
	{
		"uri":"data:application/octet-stream;base64,",
		"byteLength":50112
	},
	{
		"uri":"data:application/octet-stream;base64,",
		"byteLength":96640
	},
	{
		"uri":"data:application/octet-stream;base64,",
		"byteLength":302880
	}],
	"images":[{
		"uri":"data:image/jpeg;base64,"
	}],
	"samplers":[{
		"magFilter":9729,
		"minFilter":9729,
		"wrapS":10497,
		"wrapT":10497
	}],
	"textures":[{
		"sampler":0,
		"source":0
	}],
	"materials":[{
		"pbrMetallicRoughness":{
			"baseColorTexture":{
				"index":0
			},
			"baseColorFactor":[1.0,
			1.0,
			1.0,
			1.0],
			"metallicFactor":1.0,
			"roughnessFactor":1.0
		},
		"emissiveFactor":[0.0,
		0.0,
		0.0],
		"alphaMode":"OPAQUE",
		"doubleSided":false,
		"name":"bone"
	}]
}